<svg xmlns="http://www.w3.org/2000/svg" viewBox="0 0 900 620" role="img" aria-labelledby="title desc">
  <title id="title">Hospital Campus</title>
  <desc id="desc">Illustration of a modern hospital building with ambulance and greenery</desc>
  <rect width="900" height="620" fill="#e7f3f6"/>
  <rect y="430" width="900" height="190" fill="#d7ece4"/>
  <rect x="145" y="170" width="610" height="290" rx="10" fill="#ffffff" stroke="#d3e5ea" stroke-width="8"/>
  <rect x="400" y="130" width="100" height="70" rx="6" fill="#ffffff" stroke="#d3e5ea" stroke-width="8"/>
  <rect x="430" y="145" width="40" height="40" fill="#dc2626"/>
  <rect x="445" y="130" width="10" height="70" fill="#dc2626"/>
  <rect x="190" y="220" width="120" height="85" rx="6" fill="#d9f0f8"/>
  <rect x="330" y="220" width="120" height="85" rx="6" fill="#d9f0f8"/>
  <rect x="470" y="220" width="120" height="85" rx="6" fill="#d9f0f8"/>
  <rect x="610" y="220" width="100" height="85" rx="6" fill="#d9f0f8"/>
  <rect x="190" y="320" width="120" height="85" rx="6" fill="#d9f0f8"/>
  <rect x="330" y="320" width="120" height="85" rx="6" fill="#d9f0f8"/>
  <rect x="470" y="320" width="120" height="85" rx="6" fill="#d9f0f8"/>
  <rect x="610" y="320" width="100" height="85" rx="6" fill="#d9f0f8"/>
  <rect x="390" y="320" width="120" height="140" rx="8" fill="#134e4a"/>
  <rect x="425" y="360" width="50" height="100" fill="#0f766e"/>
  <rect x="120" y="470" width="660" height="26" rx="12" fill="#b4d1c8"/>
  <circle cx="140" cy="510" r="42" fill="#4d7c0f"/>
  <circle cx="760" cy="510" r="42" fill="#4d7c0f"/>
  <rect x="620" y="500" width="170" height="65" rx="12" fill="#ffffff" stroke="#d3e5ea" stroke-width="6"/>
  <rect x="655" y="510" width="65" height="40" fill="#dc2626"/>
  <rect x="683" y="497" width="10" height="66" fill="#dc2626"/>
  <circle cx="655" cy="570" r="16" fill="#334155"/>
  <circle cx="742" cy="570" r="16" fill="#334155"/>
  <text x="450" y="110" text-anchor="middle" font-family="Arial, sans-serif" font-size="42" font-weight="700" fill="#0f766e">SAHAYADRI HOSPITAL</text>
</svg>
