<svg xmlns="http://www.w3.org/2000/svg" viewBox="0 0 600 600" role="img" aria-labelledby="title desc">
  <title id="title">Dr Rajesh Sharma</title>
  <desc id="desc">Illustrated portrait placeholder for Dr Rajesh Sharma</desc>
  <defs>
    <linearGradient id="bg" x1="0" y1="0" x2="1" y2="1">
      <stop offset="0%" stop-color="#0ea5e9"/>
      <stop offset="100%" stop-color="#2563eb"/>
    </linearGradient>
  </defs>
  <rect width="600" height="600" fill="url(#bg)"/>
  <circle cx="300" cy="235" r="115" fill="#fde68a"/>
  <rect x="170" y="360" width="260" height="170" rx="70" fill="#ffffff" opacity="0.95"/>
  <path d="M190 182c20-70 200-85 220 0-8 20-18 28-28 33-7-25-29-46-80-46s-73 21-80 46c-10-5-20-13-32-33z" fill="#111827"/>
  <circle cx="260" cy="235" r="10" fill="#1f2937"/>
  <circle cx="340" cy="235" r="10" fill="#1f2937"/>
  <path d="M255 285c16 20 74 20 90 0" stroke="#1f2937" stroke-width="7" fill="none" stroke-linecap="round"/>
  <text x="300" y="560" text-anchor="middle" font-family="Arial, sans-serif" font-size="36" font-weight="700" fill="#ffffff">DR RAJESH SHARMA</text>
</svg>
